<svg width="69" height="74" viewBox="0 0 69 74" fill="none" xmlns="http://www.w3.org/2000/svg">
<path d="M61.6295 10.3271C60.1858 9.74955 59.0255 8.6208 58.3798 7.17705C56.6263 3.07942 52.6573 0.163049 48.0163 0.00554923C45.609 -0.0690505 43.2385 0.610066 41.2359 1.94805C40.0757 2.73555 38.5532 2.73555 37.3929 1.94805C35.3999 0.610502 33.0379 -0.0688311 30.6388 0.00554923C27.5854 0.1124 24.6961 1.41424 22.5932 3.63067C21.6403 4.62817 20.3777 5.28442 19.0363 5.59942C16.3 6.18958 13.8091 7.60082 11.8963 9.64455L11.87 9.6708C7.79342 13.9784 5.60155 19.6248 5.6278 25.5888V25.6413C5.65405 25.8513 5.6278 42.0029 5.6278 42.0029H8.23705L60.7213 42.0554L63.3463 42.0134C63.3463 42.0134 63.4618 37.0522 63.5353 35.5428C63.5957 34.2408 63.6377 32.209 63.6377 32.209C63.6902 30.4477 64.4094 28.7677 65.5697 27.4552C67.2646 25.547 68.2249 23.0978 68.2787 20.5462C68.3404 18.3689 67.7367 16.2245 66.5483 14.3991C65.3598 12.5738 63.643 11.1542 61.6269 10.3297" fill="#212121"/>
<path d="M61.0442 32.8835L60.7239 42.0526C62.1414 42.0526 63.2964 40.8294 63.3489 39.3856L63.5379 35.54C63.5642 34.9493 63.5904 34.2091 63.6062 33.5765C65.5666 34.4528 67.1245 36.0362 67.9688 38.0107C68.8132 39.9852 68.8818 42.2054 68.1611 44.2283C67.4404 46.2511 65.9833 47.9278 64.0808 48.9236C62.1782 49.9194 59.97 50.161 57.8971 49.6003C55.8242 49.0396 54.039 47.7178 52.8978 45.8987C51.7566 44.0796 51.3434 41.897 51.7407 39.7867C52.138 37.6764 53.3165 35.7934 55.0411 34.5138C56.7656 33.2342 58.9093 32.652 61.0442 32.8835ZM5.6383 33.4715C5.63567 36.5558 5.6278 39.3777 5.6278 39.3777C5.6803 40.8215 6.82217 42.0027 8.23967 42.0027V32.8572C10.3803 32.6973 12.5026 33.3502 14.1831 34.6857C15.8637 36.0212 16.979 37.9412 17.3066 40.0627C17.6342 42.1841 17.1501 44.3511 15.9507 46.1314C14.7514 47.9117 12.925 49.1744 10.8358 49.6677C8.74669 50.161 6.54837 49.8486 4.67935 48.7928C2.81034 47.7371 1.40801 46.0155 0.752092 43.9716C0.0961735 41.9277 0.234875 39.7116 1.14053 37.7654C2.04619 35.8192 3.65223 34.286 5.6383 33.4715Z" fill="#F4C6AD"/>
<path d="M60.8446 38.5669L60.7239 42.0529H60.7764L60.6556 47.8384C60.0283 63.1999 48.5019 73.5214 34.487 73.5214C20.4748 73.5214 8.94577 63.2025 8.31577 47.8384L8.1189 41.9977C8.15912 41.9995 8.19938 42.0004 8.23965 42.0004V31.5004C8.1609 29.2429 9.18727 27.5025 10.7334 25.9012C12.4304 24.1296 13.5538 21.8873 13.9569 19.4674C13.9704 19.3728 14.0123 19.2846 14.0769 19.2143C14.1416 19.144 14.226 19.0949 14.3191 19.0736C14.5764 18.9949 14.8074 19.1524 14.8861 19.3624C16.4848 23.4049 20.3514 26.295 24.8874 26.295C26.0476 26.295 27.0031 25.3237 27.0031 24.1425V19.5986C27.0031 19.3099 27.1843 19.0999 27.4153 19.0474H27.7513C27.8662 19.0844 27.9658 19.1582 28.0348 19.2574C29.6503 21.436 31.7526 23.207 34.1741 24.4289C36.5956 25.6508 39.2691 26.2898 41.9814 26.295H55.3111C58.5609 26.295 61.1649 29.025 61.0599 32.3614L60.9759 34.7895L60.8761 36.9945L60.8446 38.5669Z" fill="#FFD7C2"/>
<path d="M34.4792 55.603C31.7232 55.6132 29.0061 54.9528 26.5622 53.6789C26.3927 53.5859 26.1968 53.5527 26.0061 53.5845C25.8154 53.6164 25.6409 53.7116 25.5109 53.8546C25.3809 53.9977 25.3028 54.1804 25.2892 54.3733C25.2756 54.5662 25.3273 54.758 25.4361 54.9179C26.4084 56.4344 27.7459 57.6826 29.3258 58.548C30.9058 59.4134 32.6777 59.8684 34.4792 59.8713C36.2806 59.8684 38.0526 59.4134 39.6325 58.548C41.2125 57.6826 42.55 56.4344 43.5223 54.9179C43.9948 54.1803 43.1811 53.2851 42.3936 53.6789C39.955 54.9644 37.2358 55.6255 34.4792 55.603Z" fill="#990838"/>
<path d="M34.4555 52.5215C36.2405 52.5215 37.7893 51.6159 38.7343 50.2299C39.5743 48.9777 38.6818 47.2715 37.1855 47.2715H31.7518C30.2555 47.2715 29.363 48.9777 30.203 50.2299C31.1218 51.6159 32.6968 52.5215 34.4555 52.5215Z" fill="#E5AF93"/>
<path d="M13.9727 41.6801C14.4221 39.925 15.4422 38.3692 16.8725 37.2572C18.3029 36.1453 20.0622 35.5403 21.8739 35.5376C25.8377 35.5376 29.1189 38.3463 29.8539 42.0738C30.0114 42.8876 29.3552 43.6489 28.5152 43.6489H15.5477C14.4977 43.6489 13.7102 42.6776 13.9727 41.6801ZM55.0277 41.6801C54.5783 39.925 53.5582 38.3692 52.1278 37.2572C50.6975 36.1453 48.9381 35.5403 47.1264 35.5376C43.1627 35.5376 39.8814 38.3463 39.1464 42.0738C38.9889 42.8876 39.6452 43.6489 40.4852 43.6489H53.4527C54.5027 43.6489 55.2902 42.6776 55.0277 41.6801Z" fill="white"/>
<path d="M17.8839 42.2839C17.8839 39.4227 20.2202 37.0864 23.0814 37.0864C23.8823 37.0882 24.672 37.2745 25.3892 37.6309C26.1063 37.9874 26.7317 38.5043 27.2167 39.1417C27.7017 39.779 28.0332 40.5195 28.1856 41.3058C28.3379 42.092 28.307 42.9028 28.0952 43.6752H18.0677C17.9627 43.2289 17.8839 42.7564 17.8839 42.2839ZM51.1164 42.2839C51.1164 39.4227 48.7802 37.0864 45.9189 37.0864C45.118 37.0882 44.3283 37.2745 43.6112 37.6309C42.894 37.9874 42.2686 38.5043 41.7836 39.1417C41.2987 39.779 40.9671 40.5195 40.8148 41.3058C40.6624 42.092 40.6933 42.9028 40.9052 43.6752H50.9327C51.0377 43.2289 51.1164 42.7564 51.1164 42.2839Z" fill="#7D4533"/>
<path d="M23.0814 39.3174C23.5939 39.3157 24.0981 39.447 24.5447 39.6984C24.9914 39.9498 25.3652 40.3127 25.6296 40.7517C25.8941 41.1908 26.0402 41.6909 26.0536 42.2032C26.0671 42.7155 25.9475 43.2226 25.7064 43.6749H20.4564C20.2154 43.2226 20.0957 42.7155 20.1092 42.2032C20.1226 41.6909 20.2687 41.1908 20.5332 40.7517C20.7977 40.3127 21.1715 39.9498 21.6181 39.6984C22.0647 39.447 22.5689 39.3157 23.0814 39.3174ZM45.9189 39.3174C45.4064 39.3157 44.9022 39.447 44.4556 39.6984C44.009 39.9498 43.6352 40.3127 43.3707 40.7517C43.1062 41.1908 42.9601 41.6909 42.9467 42.2032C42.9332 42.7155 43.0529 43.2226 43.2939 43.6749H48.5439C48.785 43.2226 48.9046 42.7155 48.8911 42.2032C48.8777 41.6909 48.7316 41.1908 48.4671 40.7517C48.2027 40.3127 47.8289 39.9498 47.3822 39.6984C46.9356 39.447 46.4314 39.3157 45.9189 39.3174Z" fill="black"/>
<path d="M22.2152 40.2361C22.2152 40.4798 22.1184 40.7135 21.9461 40.8858C21.7738 41.0581 21.5401 41.1549 21.2964 41.1549C21.0528 41.1549 20.8191 41.0581 20.6468 40.8858C20.4745 40.7135 20.3777 40.4798 20.3777 40.2361C20.3777 39.9925 20.4745 39.7588 20.6468 39.5865C20.8191 39.4142 21.0528 39.3174 21.2964 39.3174C21.5401 39.3174 21.7738 39.4142 21.9461 39.5865C22.1184 39.7588 22.2152 39.9925 22.2152 40.2361ZM45.2364 40.2361C45.2364 40.3568 45.2127 40.4763 45.1665 40.5877C45.1203 40.6992 45.0527 40.8005 44.9673 40.8858C44.882 40.9711 44.7807 41.0388 44.6693 41.0849C44.5578 41.1311 44.4383 41.1549 44.3177 41.1549C44.197 41.1549 44.0776 41.1311 43.9661 41.0849C43.8546 41.0388 43.7533 40.9711 43.668 40.8858C43.5827 40.8005 43.515 40.6992 43.4689 40.5877C43.4227 40.4763 43.3989 40.3568 43.3989 40.2361C43.3989 39.9925 43.4957 39.7588 43.668 39.5865C43.8403 39.4142 44.074 39.3174 44.3177 39.3174C44.5614 39.3174 44.795 39.4142 44.9673 39.5865C45.1396 39.7588 45.2364 39.9925 45.2364 40.2361Z" fill="white"/>
<path d="M17.6949 32.9992C19.0625 32.5135 21.0234 32.1434 23.6143 32.3875C23.7859 32.4037 23.9591 32.386 24.1239 32.3352C24.2887 32.2845 24.4419 32.2018 24.5748 32.0919C24.7076 31.9819 24.8175 31.8469 24.8982 31.6945C24.9788 31.5421 25.0287 31.3753 25.0449 31.2037C25.0611 31.032 25.0433 30.8588 24.9926 30.694C24.9419 30.5292 24.8592 30.376 24.7492 30.2432C24.6393 30.1103 24.5043 30.0004 24.3519 29.9198C24.1995 29.8391 24.0327 29.7892 23.861 29.773C20.8869 29.4948 18.5428 29.9122 16.8129 30.5264C16.6505 30.5843 16.5012 30.6736 16.3733 30.7893C16.2455 30.9049 16.1417 31.0446 16.0678 31.2004C15.9187 31.5149 15.9006 31.8759 16.0175 32.2038C16.1345 32.5317 16.3769 32.7997 16.6915 32.9489C17.006 33.098 17.367 33.1161 17.6949 32.9992ZM50.6911 30.5264C48.9586 29.9122 46.6171 29.4948 43.643 29.773C43.4713 29.7892 43.3046 29.8391 43.1521 29.9198C42.9997 30.0004 42.8647 30.1103 42.7548 30.2432C42.6449 30.376 42.5622 30.5292 42.5114 30.694C42.4607 30.8588 42.4429 31.032 42.4591 31.2037C42.4753 31.3753 42.5252 31.5421 42.6059 31.6945C42.6865 31.8469 42.7964 31.9819 42.9293 32.0919C43.0621 32.2018 43.2153 32.2845 43.3801 32.3352C43.5449 32.386 43.7181 32.4037 43.8898 32.3875C46.4806 32.1434 48.4415 32.5135 49.8091 32.9992C50.1371 33.1161 50.498 33.098 50.8126 32.9489C51.1271 32.7997 51.3696 32.5317 51.4865 32.2038C51.6035 31.8759 51.5854 31.5149 51.4362 31.2004C51.2871 30.8858 51.0191 30.6434 50.6911 30.5264Z" fill="#212121"/>
</svg>
