<svg width="75" height="74" viewBox="0 0 75 74" fill="none" xmlns="http://www.w3.org/2000/svg">
<path d="M74.25 41.6535C74.25 44.1289 73.7066 46.5071 72.6645 48.636C72.4932 48.983 72.4041 49.3647 72.4041 49.7516C72.4041 50.1386 72.4932 50.5203 72.6645 50.8673C73.6568 52.9463 74.25 55.2746 74.25 57.75C74.25 66.465 67.215 73.5 58.5 73.5H16.5C7.785 73.5 0.750004 66.465 0.750004 57.75C0.750004 55.2746 1.34325 52.9463 2.3355 50.8646C2.50638 50.518 2.59526 50.1368 2.59526 49.7503C2.59526 49.3639 2.50638 48.9826 2.3355 48.636C1.2996 46.4535 0.758222 44.0693 0.750004 41.6535C0.747897 38.4908 1.67333 35.3969 3.41175 32.7547L3.42488 32.739C5.10547 30.1607 5.99932 27.1489 5.99738 24.0713V24.0187C5.99877 19.7362 7.70115 15.6296 10.7301 12.6021C13.759 9.57468 17.8665 7.8743 22.149 7.875C23.0415 7.875 23.8815 7.42875 24.3776 6.73575C25.8744 4.65327 27.8449 2.95647 30.1265 1.78533C32.4081 0.614189 34.9354 0.00225366 37.5 0C40.065 0.00183761 42.5929 0.613574 44.875 1.78473C47.157 2.95589 49.1279 4.65291 50.625 6.73575C51.1211 7.47862 51.9638 7.875 52.8563 7.875C57.1374 7.87639 61.2428 9.57769 64.2701 12.6049C67.2973 15.6322 68.9986 19.7376 69 24.0187V24.0713C69 27.1425 69.8925 30.1613 71.5751 32.739L71.5856 32.7521C72.1264 33.5396 72.5674 34.3796 72.9611 35.2643H72.9349C73.7801 37.2199 74.25 39.3671 74.25 41.6535Z" fill="#212121"/>
<path d="M69 41.7373C69 42.7715 68.7963 43.7955 68.4005 44.7509C68.0048 45.7064 67.4247 46.5745 66.6934 47.3058C65.9622 48.037 65.094 48.6171 64.1386 49.0129C63.1832 49.4086 62.1591 49.6123 61.125 49.6123C60.0908 49.6123 59.0668 49.4086 58.1113 49.0129C57.1559 48.6171 56.2878 48.037 55.5565 47.3058C54.8252 46.5745 54.2452 45.7064 53.8494 44.7509C53.4537 43.7955 53.25 42.7715 53.25 41.7373C53.25 39.6487 54.0797 37.6457 55.5565 36.1688C57.0334 34.692 59.0364 33.8623 61.125 33.8623C63.2136 33.8623 65.2166 34.692 66.6934 36.1688C68.1703 37.6457 69 39.6487 69 41.7373ZM22.5375 41.9998C22.5375 44.0884 21.7078 46.0914 20.2309 47.5683C18.7541 49.0451 16.7511 49.8748 14.6625 49.8748C12.5739 49.8748 10.5709 49.0451 9.09401 47.5683C7.61716 46.0914 6.78748 44.0884 6.78748 41.9998C6.78748 39.9112 7.61716 37.9082 9.09401 36.4313C10.5709 34.9545 12.5739 34.1248 14.6625 34.1248C16.7511 34.1248 18.7541 34.9545 20.2309 36.4313C21.7078 37.9082 22.5375 39.9112 22.5375 41.9998Z" fill="#F4C6AD"/>
<path d="M12.6019 35.5583H12.6623L12.6124 34.2589L12.5625 32.7627C12.6622 28.1164 15.3713 26.3209 16.5263 25.7198C16.605 25.6935 16.6916 25.6594 16.7782 25.62C16.8611 25.584 16.9452 25.5508 17.0302 25.5203C19.6746 24.33 21.7588 22.1669 22.8499 19.4802L23.2515 18.5299C23.3392 18.3144 23.4834 18.1266 23.6691 17.9863C23.8547 17.846 24.0747 17.7585 24.306 17.7329C24.5372 17.7074 24.7711 17.7448 24.9829 17.8412C25.1946 17.9375 25.3764 18.0894 25.509 18.2805C27.2498 20.8113 29.5811 22.8798 32.3012 24.3068C35.0213 25.7339 38.0482 26.4765 41.1199 26.4705H56.8778C57.7598 26.4705 62.175 26.8984 62.4375 32.991L61.8574 47.2973C61.2536 61.0129 50.5436 70.224 37.4685 70.224C24.396 70.224 13.6834 61.0129 13.0796 47.2973L12.6019 35.5583Z" fill="#FFD7C2"/>
<path d="M35.6284 40.7582L33.0296 49.0795C32.9064 49.4764 32.8786 49.8969 32.9487 50.3067C33.0188 50.7164 33.1847 51.1037 33.4329 51.4372C33.6812 51.7706 34.0046 52.0407 34.3771 52.2253C34.7495 52.41 35.1602 52.5041 35.5759 52.4998H39.4241C41.2301 52.4998 42.5033 50.7621 41.9704 49.0768L39.3716 40.7556C38.8125 38.9155 36.2138 38.9155 35.6284 40.7556" fill="#E5AF93"/>
<path d="M37.5 56.1621C35.1438 56.1774 32.8184 55.6264 30.7196 54.5556C30.0503 54.2143 29.3284 54.9703 29.751 55.5793C30.5993 56.8566 31.7513 57.9034 33.1037 58.6258C34.4561 59.3483 35.9667 59.7239 37.5 59.7189C39.0333 59.7239 40.5439 59.3483 41.8963 58.6258C43.2487 57.9034 44.4007 56.8566 45.249 55.5793C45.669 54.9467 44.9498 54.2143 44.2804 54.5556C42.1826 55.6293 39.8565 56.1804 37.5 56.1621Z" fill="#990838"/>
<path d="M24.375 35.1748C27 35.1748 29.6906 37.2748 31.0031 39.3748C29.4308 39.8578 27.9713 40.2306 26.5459 40.5954C24.8738 41.0207 23.2515 41.4354 21.5531 41.9998L18.9281 40.1623C17.8781 39.3748 17.6156 38.0623 19.1906 37.0123C20.7656 35.6998 22.5375 35.1748 24.375 35.1748ZM51.15 35.1748C48.525 35.1748 45.8344 37.2748 44.5219 39.3748C46.0943 39.8578 47.5538 40.2306 48.9791 40.5954C50.6486 41.0207 52.2735 41.4354 53.9719 41.9998L56.5969 40.1623C57.6469 39.3748 57.9094 38.0623 56.3344 37.0123C54.7594 35.6998 52.9875 35.1748 51.15 35.1748Z" fill="black"/>
<path d="M19.1644 40.3384C19.5438 38.8317 20.4245 37.499 21.6619 36.5593C22.8993 35.6197 24.4196 35.1291 25.9728 35.1682C27.526 35.2073 29.0197 35.7738 30.2082 36.7745C31.3968 37.7752 32.2094 39.1505 32.5125 40.6744C32.5423 40.8372 32.5357 41.0047 32.4933 41.1647C32.4508 41.3247 32.3735 41.4733 32.2669 41.6C32.1603 41.7266 32.0271 41.8282 31.8767 41.8973C31.7262 41.9665 31.5624 42.0016 31.3969 42H20.4847C20.28 42.0022 20.0775 41.9576 19.8926 41.8696C19.7077 41.7816 19.5454 41.6525 19.418 41.4922C19.2907 41.3319 19.2016 41.1446 19.1576 40.9447C19.1137 40.7447 19.116 40.5373 19.1644 40.3384ZM55.8356 40.3384C55.4578 38.8647 54.6014 37.5582 53.4009 36.6237C52.2004 35.6892 50.7236 35.1797 49.2022 35.175C47.6189 35.1712 46.0835 35.7179 44.859 36.7217C43.6345 37.7254 42.797 39.1237 42.4901 40.677C42.4608 40.8394 42.4676 41.0063 42.5101 41.1658C42.5526 41.3253 42.6298 41.4735 42.736 41.5998C42.8423 41.7261 42.9751 41.8275 43.1249 41.8966C43.2748 41.9658 43.4381 42.0011 43.6031 42H54.5152C54.72 42.0022 54.9225 41.9576 55.1074 41.8696C55.2923 41.7816 55.4546 41.6525 55.5819 41.4922C55.7093 41.3319 55.7984 41.1446 55.8424 40.9447C55.8863 40.7447 55.884 40.5373 55.8356 40.3384Z" fill="white"/>
<path d="M22.4299 40.837C22.4299 40.2139 22.5633 39.598 22.8211 39.0306C23.0789 38.4633 23.455 37.9577 23.9243 37.5478C24.3936 37.1378 24.9452 36.8331 25.5421 36.6539C26.1389 36.4748 26.7671 36.4254 27.3846 36.5091C28.0021 36.5928 28.5945 36.8076 29.1221 37.1392C29.6497 37.4708 30.1003 37.9114 30.4435 38.4315C30.7867 38.9516 31.0147 39.5391 31.1122 40.1545C31.2096 40.77 31.1742 41.3992 31.0084 41.9999H22.5847C22.4799 41.6212 22.4295 41.23 22.4299 40.837ZM52.5701 40.837C52.5701 38.4062 50.6014 36.4664 48.1916 36.4664C47.6175 36.4632 47.0485 36.5742 46.5177 36.793C45.9869 37.0117 45.5049 37.3337 45.0996 37.7404C44.6944 38.1471 44.3741 38.6303 44.1573 39.1619C43.9405 39.6935 43.8315 40.2629 43.8367 40.837C43.8367 41.2491 43.8892 41.6376 43.9942 41.9999H52.4152C52.5202 41.6114 52.5728 41.2491 52.5728 40.837" fill="#7D4533"/>
<path d="M26.8084 38.354C27.2373 38.3529 27.6592 38.4628 28.033 38.6729C28.4069 38.8831 28.7201 39.1865 28.942 39.5535C29.164 39.9205 29.2872 40.3387 29.2997 40.7674C29.3122 41.1961 29.2135 41.6208 29.0134 42.0001H24.606C24.4058 41.6208 24.3072 41.1961 24.3197 40.7674C24.3322 40.3387 24.4554 39.9205 24.6773 39.5535C24.8993 39.1865 25.2124 38.8831 25.5863 38.6729C25.9602 38.4628 26.3821 38.3529 26.811 38.354M48.1654 38.354C47.7365 38.3529 47.3146 38.4628 46.9407 38.6729C46.5668 38.8831 46.2537 39.1865 46.0317 39.5535C45.8098 39.9205 45.6865 40.3387 45.674 40.7674C45.6615 41.1961 45.7602 41.6208 45.9604 42.0001H50.3677C50.5679 41.6208 50.6666 41.1961 50.6541 40.7674C50.6416 40.3387 50.5183 39.9205 50.2964 39.5535C50.0744 39.1865 49.7613 38.8831 49.3874 38.6729C49.0135 38.4628 48.5943 38.3529 48.1654 38.354Z" fill="black"/>
<path d="M26.0812 39.1649C26.0812 39.6007 25.7347 39.9524 25.3069 39.9524C25.2041 39.9518 25.1026 39.9308 25.0079 39.8909C24.9133 39.8509 24.8274 39.7927 24.7553 39.7196C24.6831 39.6465 24.6261 39.5599 24.5874 39.4647C24.5487 39.3695 24.5292 39.2677 24.5299 39.1649C24.5299 38.7292 24.8764 38.3774 25.3069 38.3774C25.7347 38.3774 26.0839 38.7292 26.0839 39.1649M47.5957 39.1649C47.5957 39.6007 47.2466 39.9524 46.8161 39.9524C46.7134 39.9518 46.6118 39.9308 46.5172 39.8909C46.4225 39.8509 46.3367 39.7927 46.2645 39.7196C46.1924 39.6465 46.1353 39.5599 46.0966 39.4647C46.058 39.3695 46.0384 39.2677 46.0391 39.1649C46.0391 38.7292 46.3882 38.3774 46.8161 38.3774C47.2466 38.3774 47.5957 38.7292 47.5957 39.1649Z" fill="white"/>
<path d="M20.8706 33.0356L20.8496 33.0487C20.552 33.2126 20.2025 33.2548 19.8745 33.1663C19.5465 33.0778 19.2656 32.8655 19.0909 32.5742C18.9161 32.2828 18.8612 31.9351 18.9375 31.604C19.0139 31.273 19.2157 30.9845 19.5004 30.7991L19.503 30.7965L19.5083 30.7912L19.524 30.7834L19.5686 30.7571C19.8048 30.6203 20.0475 30.4951 20.2958 30.3817C20.7788 30.1507 21.4639 29.8567 22.3039 29.589C23.9655 29.0587 26.2939 28.6125 28.8034 29.0561C28.9732 29.0861 29.1354 29.1492 29.2807 29.2419C29.4261 29.3346 29.5518 29.455 29.6506 29.5963C29.7495 29.7375 29.8195 29.8969 29.8568 30.0652C29.8941 30.2335 29.8978 30.4075 29.8678 30.5773C29.8378 30.7471 29.7747 30.9093 29.682 31.0547C29.5893 31.2 29.4689 31.3257 29.3277 31.4246C29.1864 31.5234 29.0271 31.5935 28.8587 31.6307C28.6904 31.668 28.5164 31.6717 28.3466 31.6417C26.3962 31.2952 24.522 31.6365 23.1019 32.0906C22.331 32.3374 21.5842 32.6537 20.8706 33.0356ZM55.4996 30.7965L55.4944 30.7912L55.4813 30.7834L55.434 30.7571C55.1957 30.6242 54.9532 30.499 54.7069 30.3817C54.0569 30.0728 53.3869 29.808 52.7014 29.589C51.0371 29.0587 48.7114 28.6125 46.1992 29.0561C45.8564 29.1167 45.5516 29.311 45.352 29.5963C45.1524 29.8815 45.0742 30.2344 45.1348 30.5773C45.1954 30.9202 45.3897 31.225 45.675 31.4246C45.9602 31.6242 46.3131 31.7023 46.656 31.6417C48.6064 31.2952 50.4806 31.6365 51.9034 32.0906C52.6733 32.3375 53.4193 32.6538 54.132 33.0356L54.153 33.0487C54.4517 33.2277 54.8092 33.2806 55.1469 33.1959C55.4846 33.1113 55.7748 32.8959 55.9538 32.5972C56.1327 32.2986 56.1856 31.9411 56.1009 31.6034C56.0163 31.2657 55.7983 30.9754 55.4996 30.7965Z" fill="#212121"/>
</svg>
